<svg width="62" height="56" viewBox="0 0 62 56" fill="none" xmlns="http://www.w3.org/2000/svg">
<g clip-path="url(#clip0_312_1420)">
<path d="M49.7834 55.8302H11.2834C9.30134 55.8361 7.35294 55.3182 5.6354 54.329C3.91785 53.3398 2.49212 51.9144 1.50254 50.1971C0.512949 48.4798 -0.00537129 46.5315 4.19704e-05 44.5495C0.00545523 42.5675 0.53441 40.6221 1.53336 38.9102L20.7934 5.62018C21.7811 3.91127 23.2011 2.49232 24.9108 1.50582C26.6204 0.519324 28.5595 0 30.5334 0C32.5072 0 34.4463 0.519324 36.156 1.50582C37.8656 2.49232 39.2856 3.91127 40.2734 5.62018L59.5334 38.9102C60.5194 40.6201 61.0382 42.5593 61.0377 44.5331C61.0372 46.5069 60.5174 48.4459 59.5305 50.1552C58.5435 51.8646 57.1243 53.2842 55.4151 54.2716C53.706 55.2589 51.7672 55.7792 49.7934 55.7802L49.7834 55.8302ZM30.5334 5.42018C29.5173 5.42115 28.5197 5.69085 27.6415 6.20192C26.7634 6.71299 26.0361 7.44724 25.5334 8.33018L6.24336 41.6702C5.73669 42.5517 5.46981 43.5506 5.46929 44.5674C5.46877 45.5841 5.73463 46.5833 6.24039 47.4654C6.74616 48.3474 7.47418 49.0816 8.35195 49.5947C9.22973 50.1079 10.2266 50.3822 11.2434 50.3902H49.7434C50.7601 50.3822 51.757 50.1079 52.6348 49.5947C53.5125 49.0816 54.2406 48.3474 54.7463 47.4654C55.2521 46.5833 55.518 45.5841 55.5174 44.5674C55.5169 43.5506 55.25 42.5517 54.7434 41.6702L35.5334 8.33018C35.0306 7.44724 34.3033 6.71299 33.4252 6.20192C32.5471 5.69085 31.5494 5.42115 30.5334 5.42018Z" fill="#EE8C47"/>
<path d="M30.1909 36.5353C29.6044 36.5337 29.0412 36.3054 28.6193 35.898C28.1973 35.4907 27.9492 34.936 27.9268 34.3499L27.3923 19.3584C27.3807 19.0535 27.4306 18.7494 27.539 18.4642C27.6475 18.179 27.8123 17.9186 28.0236 17.6985C28.2349 17.4784 28.4884 17.3031 28.7689 17.1831C29.0494 17.0631 29.3512 17.0008 29.6563 17H30.7176C31.0227 17.0008 31.3245 17.0631 31.605 17.1831C31.8856 17.3031 32.139 17.4784 32.3503 17.6985C32.5616 17.9186 32.7264 18.179 32.8349 18.4642C32.9434 18.7494 32.9933 19.0535 32.9817 19.3584L32.4471 34.3499C32.4248 34.9346 32.1778 35.4882 31.7575 35.8953C31.3372 36.3024 30.776 36.5317 30.1909 36.5353Z" fill="#EE8C47"/>
<path d="M30.1917 44.2C31.9544 44.2 33.3834 42.7711 33.3834 41.0083C33.3834 39.2456 31.9544 37.8167 30.1917 37.8167C28.429 37.8167 27 39.2456 27 41.0083C27 42.7711 28.429 44.2 30.1917 44.2Z" fill="#EE8C47"/>
</g>
<defs>
<clipPath id="clip0_312_1420">
<rect width="61.0377" height="55.8302" fill="white"/>
</clipPath>
</defs>
</svg>
