<svg width="140" height="141" viewBox="0 0 140 141" fill="none" xmlns="http://www.w3.org/2000/svg">
<g clip-path="url(#clip0_223_6170)">
<path d="M86.5416 15.957C81.766 4.30588 69.0227 -1.83635 56.8977 1.6683C52.6422 2.8974 48.3992 4.29357 44.2919 5.8147C40.1846 7.33584 36.0584 9.03908 32.0261 10.8793C20.5436 16.1181 14.875 29.079 18.8431 41.0291C24.8732 59.2017 31.6227 77.4184 38.8964 95.1765C43.6709 106.825 56.4118 112.968 68.5376 109.466C72.6655 108.275 76.7491 106.936 80.7805 105.451L75.1567 90.2661C71.4975 91.6133 67.7909 92.8284 64.0442 93.9089C59.8798 95.1104 55.5111 93.0156 53.8811 89.0373C46.7244 71.5619 40.1641 53.8481 34.2116 35.9267C32.8562 31.8438 34.8077 27.4116 38.7474 25.6116C42.4208 23.9379 46.1781 22.3837 49.9154 20.9995C51.24 20.5095 52.5709 20.0371 53.9079 19.5823C56.3843 18.7374 58.8803 17.9512 61.3938 17.2244C65.5582 16.0229 69.9259 18.115 71.5569 22.096C74.4851 29.2449 77.3126 36.4347 80.0387 43.6631L95.2235 38.0393C92.4333 30.6382 89.539 23.2767 86.5416 15.957Z" fill="#605768"/>
<path d="M87.7 40.8269L80.0413 43.6632C77.3152 36.4348 74.4877 29.2451 71.5595 22.0961C69.9287 18.1154 65.5609 16.0234 61.3964 17.2246C58.8828 17.9513 56.3868 18.7375 53.9105 19.5824C55.1328 19.093 56.3561 18.6153 57.5795 18.1622C61.3168 16.778 65.1802 15.5101 69.0576 14.3874C73.2193 13.187 77.5869 15.2791 79.218 19.2598C82.1461 26.4088 84.9737 33.5985 87.7 40.8269ZM76.1998 106.629C64.0755 110.131 51.3334 103.988 46.56 92.3392C39.262 74.5231 32.5729 56.4636 26.5044 38.192C22.5387 26.2431 28.2066 13.2821 39.6882 8.04363C42.4763 6.77386 45.2959 5.57437 48.1443 4.44629C46.8566 4.88789 45.574 5.34419 44.2967 5.81512C40.1475 7.35359 36.0558 9.04301 32.0298 10.88C20.5478 16.1185 14.88 29.0795 18.846 41.0284C24.9145 59.2999 31.6035 77.3595 38.9015 95.1756C43.6746 106.825 56.4171 112.968 68.5413 109.465C72.7926 108.237 76.9976 106.854 81.1479 105.319C82.4238 104.844 83.6941 104.355 84.9588 103.851C82.0629 104.851 79.1423 105.777 76.1998 106.629Z" fill="#41364A"/>
<path d="M61.0735 140.687C50.3564 140.687 39.5494 140.376 28.7598 139.76C21.0054 139.316 14.8052 133.147 14.3146 125.395C13.3494 110.159 13.3483 94.8762 14.3111 79.6394C14.8016 71.8883 21.0021 65.719 28.756 65.2763C39.5357 64.6605 50.3572 64.3496 61.0735 64.3496C71.7898 64.3496 82.6114 64.6605 93.3911 65.2763C101.145 65.7193 107.345 71.8883 107.836 79.6394C108.799 94.8762 108.798 110.159 107.832 125.395C107.342 133.147 101.141 139.316 93.3873 139.76C82.627 140.376 71.8514 140.685 61.0735 140.687Z" fill="#F1E0FF"/>
<path d="M32.4346 139.954C31.208 139.897 29.9814 139.829 28.7588 139.76C21.0063 139.318 14.8045 133.149 14.3145 125.396C13.3497 110.159 13.3483 94.8759 14.3104 79.6384C14.8001 71.89 21.0022 65.7204 28.7547 65.275C29.9814 65.2061 31.2039 65.1374 32.4305 65.0806C27.8762 67.7523 24.7346 72.5659 24.3825 78.1566C23.3556 94.3808 23.3569 110.654 24.3866 126.878C24.7387 132.469 27.8803 137.282 32.4346 139.954Z" fill="#AE70DD"/>
<path d="M47.416 111.317C48.0362 111.317 48.539 111.82 48.5391 112.44V117.408C48.5391 120.123 50.7485 122.333 53.4639 122.333H58.4316C59.0519 122.333 59.5547 122.835 59.5547 123.456C59.5546 124.076 59.0518 124.579 58.4316 124.579H53.4639C49.5099 124.579 46.293 121.362 46.293 117.408V112.44C46.293 111.82 46.7958 111.317 47.416 111.317ZM89.4043 111.317C90.0245 111.317 90.5273 111.82 90.5273 112.44V117.408C90.5273 121.362 87.3104 124.579 83.3564 124.579H78.3887C77.7685 124.579 77.2657 124.076 77.2656 123.456C77.2656 122.835 77.7685 122.333 78.3887 122.333H83.3564C86.0718 122.333 88.2812 120.123 88.2812 117.408V112.44C88.2813 111.82 88.7841 111.317 89.4043 111.317ZM74.5781 111.324C75.0513 110.887 75.7895 110.916 76.2266 111.389C76.6636 111.862 76.6342 112.601 76.1611 113.038C74.0451 114.992 71.2924 116.069 68.4102 116.069C65.5279 116.069 62.7752 114.992 60.6592 113.038C60.1861 112.601 60.1567 111.862 60.5938 111.389C61.0308 110.916 61.769 110.887 62.2422 111.324C63.9259 112.879 66.1163 113.736 68.4102 113.736C70.704 113.736 72.8944 112.879 74.5781 111.324ZM69.5762 95.8521C70.2202 95.8521 70.7429 96.3741 70.7432 97.0181V105.312C70.7432 106.956 69.4053 108.293 67.7617 108.293H66.8115C66.1675 108.293 65.6455 107.771 65.6455 107.126C65.6457 106.483 66.1676 105.961 66.8115 105.96H67.7617C68.119 105.96 68.4102 105.669 68.4102 105.312V97.0181C68.4104 96.3742 68.9323 95.8522 69.5762 95.8521ZM59.4033 95.8521C60.0116 95.8521 60.5048 96.3453 60.5049 96.9536V100.28C60.5049 100.888 60.0117 101.381 59.4033 101.381C58.795 101.381 58.3018 100.888 58.3018 100.28V96.9536C58.3018 96.3454 58.7951 95.8521 59.4033 95.8521ZM77.6758 95.8521C78.2841 95.8521 78.7773 96.3453 78.7773 96.9536V100.28C78.7773 100.888 78.2841 101.381 77.6758 101.381C77.0676 101.381 76.5742 100.888 76.5742 100.28V96.9536C76.5743 96.3454 77.0676 95.8522 77.6758 95.8521ZM58.4316 80.3442C59.0518 80.3443 59.5546 80.8471 59.5547 81.4673C59.5547 82.0875 59.0519 82.5903 58.4316 82.5903H53.4639C50.7485 82.5903 48.5391 84.7997 48.5391 87.5151V92.4829C48.539 93.1031 48.0362 93.606 47.416 93.606C46.7958 93.6059 46.293 93.1031 46.293 92.4829V87.5151C46.293 83.5611 49.5099 80.3442 53.4639 80.3442H58.4316ZM83.3564 80.3442C87.3104 80.3442 90.5273 83.5611 90.5273 87.5151V92.4829C90.5273 93.1031 90.0245 93.6059 89.4043 93.606C88.7841 93.606 88.2813 93.1031 88.2812 92.4829V87.5151C88.2812 84.7997 86.0718 82.5903 83.3564 82.5903H78.3887C77.7685 82.5903 77.2656 82.0875 77.2656 81.4673C77.2657 80.8471 77.7685 80.3443 78.3887 80.3442H83.3564Z" fill="black"/>
<path d="M102.906 43.1426C102.488 43.1426 102.079 43.0186 101.732 42.7865C101.385 42.5544 101.114 42.2244 100.954 41.8384C100.794 41.4523 100.752 41.0276 100.834 40.6177C100.915 40.2079 101.116 39.8315 101.412 39.536L108.73 32.218C108.925 32.0202 109.158 31.8631 109.415 31.7556C109.672 31.6482 109.947 31.5925 110.226 31.5918C110.504 31.5911 110.78 31.6454 111.037 31.7516C111.294 31.8578 111.528 32.0138 111.725 32.2106C111.922 32.4074 112.078 32.6411 112.184 32.8984C112.29 33.1556 112.344 33.4313 112.344 33.7097C112.343 33.988 112.287 34.2634 112.18 34.5202C112.073 34.777 111.915 35.01 111.718 35.2058L104.4 42.5238C104.204 42.7203 103.971 42.8761 103.714 42.9823C103.458 43.0885 103.183 43.143 102.906 43.1426ZM110.224 68.4085C109.946 68.4089 109.671 68.3544 109.415 68.2482C109.158 68.142 108.926 67.9862 108.73 67.7897L101.412 60.4717C101.019 60.0748 100.799 59.5384 100.8 58.9798C100.801 58.4212 101.024 57.8859 101.419 57.4909C101.814 57.096 102.349 56.8735 102.908 56.8722C103.466 56.8708 104.003 57.0908 104.4 57.4839L111.718 64.8019C112.013 65.0974 112.214 65.4738 112.296 65.8836C112.377 66.2935 112.335 66.7182 112.175 67.1043C112.016 67.4903 111.745 67.8203 111.397 68.0524C111.05 68.2845 110.641 68.4085 110.224 68.4085ZM124.296 52.1166H105.72C105.16 52.1166 104.623 51.894 104.227 51.4978C103.83 51.1016 103.608 50.5643 103.608 50.004C103.608 49.4437 103.83 48.9063 104.227 48.5102C104.623 48.114 105.16 47.8914 105.72 47.8914H124.296C125.463 47.8914 126.409 48.8372 126.409 50.004C126.409 51.1707 125.463 52.1166 124.296 52.1166Z" fill="#C79DE8"/>
</g>
<defs>
<clipPath id="clip0_223_6170">
<rect width="140" height="140" fill="white" transform="translate(0 0.6875)"/>
</clipPath>
</defs>
</svg>
