<svg width="14" height="4" viewBox="0 0 14 4" fill="none" xmlns="http://www.w3.org/2000/svg">
<path d="M2.19238 3.25C1.84863 3.25 1.5544 3.12757 1.30967 2.88271C1.06481 2.63799 0.942383 2.34375 0.942383 2C0.942383 1.65625 1.06481 1.36201 1.30967 1.11729C1.5544 0.872431 1.84863 0.75 2.19238 0.75C2.53613 0.75 2.83044 0.872431 3.0753 1.11729C3.32002 1.36201 3.44238 1.65625 3.44238 2C3.44238 2.34375 3.32002 2.63799 3.0753 2.88271C2.83044 3.12757 2.53613 3.25 2.19238 3.25ZM7.00009 3.25C6.65634 3.25 6.36211 3.12757 6.11738 2.88271C5.87252 2.63799 5.75009 2.34375 5.75009 2C5.75009 1.65625 5.87252 1.36201 6.11738 1.11729C6.36211 0.872431 6.65634 0.75 7.00009 0.75C7.34384 0.75 7.63808 0.872431 7.8828 1.11729C8.12766 1.36201 8.25009 1.65625 8.25009 2C8.25009 2.34375 8.12766 2.63799 7.8828 2.88271C7.63808 3.12757 7.34384 3.25 7.00009 3.25ZM11.8078 3.25C11.4641 3.25 11.1697 3.12757 10.9249 2.88271C10.6802 2.63799 10.5578 2.34375 10.5578 2C10.5578 1.65625 10.6802 1.36201 10.9249 1.11729C11.1697 0.872431 11.4641 0.75 11.8078 0.75C12.1516 0.75 12.4458 0.872431 12.6905 1.11729C12.9354 1.36201 13.0578 1.65625 13.0578 2C13.0578 2.34375 12.9354 2.63799 12.6905 2.88271C12.4458 3.12757 12.1516 3.25 11.8078 3.25Z" fill="#1C1B1F"/>
</svg>
