<svg width="16" height="16" viewBox="0 0 16 16" fill="none" xmlns="http://www.w3.org/2000/svg">
<path d="M7.25 12.5C8.7 12.5 9.9375 11.9906 10.9625 10.9719C11.9875 9.95312 12.5 8.7125 12.5 7.25C12.5 5.8 11.9875 4.5625 10.9625 3.5375C9.9375 2.5125 8.7 2 7.25 2C5.7875 2 4.54688 2.5125 3.52812 3.5375C2.50937 4.5625 2 5.8 2 7.25C2 8.7125 2.50937 9.95312 3.52812 10.9719C4.54688 11.9906 5.7875 12.5 7.25 12.5ZM7.25 14C6.3125 14 5.43438 13.8219 4.61563 13.4656C3.79688 13.1094 3.08438 12.6281 2.47813 12.0219C1.87188 11.4156 1.39062 10.7031 1.03438 9.88437C0.678125 9.06562 0.5 8.1875 0.5 7.25C0.5 6.325 0.678125 5.45312 1.03438 4.63438C1.39062 3.81562 1.87188 3.1 2.47813 2.4875C3.08438 1.875 3.79688 1.39062 4.61563 1.03438C5.43438 0.678125 6.3125 0.5 7.25 0.5C8.175 0.5 9.04688 0.678125 9.86563 1.03438C10.6844 1.39062 11.4 1.875 12.0125 2.4875C12.625 3.1 13.1094 3.81562 13.4656 4.63438C13.8219 5.45312 14 6.325 14 7.25C14 8.05 13.8688 8.80625 13.6063 9.51875C13.3438 10.2312 12.9812 10.8812 12.5187 11.4687L14.975 13.925C15.125 14.075 15.1969 14.25 15.1906 14.45C15.1844 14.65 15.1062 14.825 14.9562 14.975C14.8062 15.1125 14.6313 15.1812 14.4313 15.1812C14.2313 15.1812 14.0562 15.1125 13.9062 14.975L11.45 12.5375C10.8625 13 10.2125 13.3594 9.5 13.6156C8.7875 13.8719 8.0375 14 7.25 14Z" fill="#B6B1B9"/>
</svg>
