<svg width="80" height="80" viewBox="0 0 80 80" fill="none" xmlns="http://www.w3.org/2000/svg">
<g clip-path="url(#clip0_313_1433)">
<path d="M39.582 0C17.707 0 0 17.707 0 39.582C0 61.457 17.707 79.164 39.582 79.164C61.457 79.164 79.164 61.457 79.164 39.582C79.164 17.707 61.457 0 39.582 0ZM39.582 70.832C22.5 70.832 8.332 56.875 8.332 39.582C8.332 22.289 22.5 8.332 39.582 8.332C56.664 8.332 70.832 22.289 70.832 39.582C70.832 56.875 56.664 70.832 39.582 70.832Z" fill="#47EE79"/>
<path d="M52.2822 26.2499L34.3643 44.1679L26.8643 36.6679C25.1963 34.9999 22.6962 34.9999 21.0322 36.6679C19.3642 38.3359 19.3642 40.8359 21.0322 42.4999L31.4502 52.9179C32.2823 53.75 33.3252 54.1679 34.3682 54.1679C35.4112 54.1679 36.4502 53.75 37.2862 52.9179L58.1182 32.0859C59.7862 30.4179 59.7862 27.9179 58.1182 26.2539C56.4502 24.582 53.9501 24.5819 52.2822 26.2499Z" fill="#47EE79"/>
</g>
<defs>
<clipPath id="clip0_313_1433">
<rect width="79.164" height="79.164" fill="white"/>
</clipPath>
</defs>
</svg>
