<svg width="152" height="153" viewBox="0 0 152 153" fill="none" xmlns="http://www.w3.org/2000/svg">
<g clip-path="url(#clip0_1799_4560)">
<path d="M52.2929 64.0325L0.195312 63.9675L0.910761 60.6179L1.56117 58.0163L2.27661 55.5122L3.02458 53.1707L3.67499 51.3496L4.3254 49.626L5.04084 47.9024L5.85385 46.0488L6.43922 44.748L6.8945 43.8374L7.41483 42.7317L8.00019 41.5935L8.488 40.6504L9.04084 39.6423L9.59369 38.6667L10.1465 37.7236L10.8295 36.5854L11.4473 35.6098L12.0978 34.6341L12.7482 33.6585L13.6587 32.3577L14.5043 31.187L15.2847 30.1463L16.1628 29.0081L17.0408 27.935L17.8864 26.9268L18.8295 25.8537L19.675 24.9106L20.7156 23.8049L21.8864 22.6341L23.2197 21.3333L24.4555 20.1626L25.6262 19.122L26.6343 18.2439L27.8701 17.2033L29.236 16.0976L30.5368 15.0894L32.0977 13.9512L33.5612 12.9431L34.8945 12.065L36.553 11.0244L38.179 10.0488L40.2929 8.87805L42.0815 7.93496L43.7725 7.12195L45.301 6.4065L46.9595 5.69106L48.8457 4.94309L51.2197 4.09756L53.2034 3.44715L55.2197 2.82927L57.2685 2.27642L59.2522 1.82114L60.8132 1.49594L62.7319 1.13821L65.0083 0.780488L67.5774 0.455284L69.8864 0.227642L72.0652 0.097561L73.8864 0.0325204L75.6099 0L77.4311 0.0325204L79.3498 0.097561L81.366 0.227642L83.3173 0.390244L84.9108 0.552845L86.5693 0.780488L88.0977 1.00813L89.5937 1.26829L90.9595 1.52846L92.7807 1.9187L94.4392 2.30894L95.8701 2.69919L97.5286 3.18699L99.1221 3.6748L101.041 4.3252L102.894 5.00813L104.521 5.65854L105.821 6.21138L107.122 6.79675L108.293 7.34959L109.431 7.90244L110.407 8.39024L111.317 8.87805L112.195 9.36585L113.268 9.95122L114.667 10.7642L115.903 11.5122L117.301 12.3902L118.764 13.3659L120.26 14.439L121.691 15.5122L123.22 16.7154L124.813 18.0488L126.537 19.5447L127.935 20.813L129.496 22.3415L131.22 24.0976L132.521 25.4959L133.789 26.9268L135.057 28.4553L136.325 30.0488L137.399 31.4797L138.342 32.7805L139.22 34.0813L140.033 35.3171L141.073 36.9756L142.049 38.6016L142.992 40.2927L143.935 42.0813L144.781 43.7724L145.594 45.561L146.309 47.187L146.927 48.6829L147.382 49.8537L148.13 51.935L148.716 53.5935L149.171 54.9919L149.561 56.2602L149.919 57.4959L150.244 58.6992L150.569 60.1301L150.862 61.3984C150.862 61.3984 151.285 63.3821 151.285 63.4797H98.6343L98.049 62.7642L97.5286 62.0488L97.0083 61.3659L96.4229 60.6504L95.74 59.8699L95.1221 59.2195L94.4067 58.5041L93.6587 57.7886L92.9433 57.2032L92.2604 56.6504L91.5449 56.1301L90.7319 55.5772L89.9839 55.0894L89.1059 54.5691L88.2603 54.0813L87.3173 53.5935L86.2441 53.1057C86.2441 53.1057 84.7156 52.4878 84.6181 52.4553C84.6181 52.4553 83.3498 52.0325 83.1872 52L81.7888 51.6423L80.553 51.3821L79.3823 51.187L78.4067 51.0569C78.4067 51.0569 77.1059 50.9268 76.8132 50.9268L75.4148 50.8943L74.2116 50.9268L72.8457 51.0244L71.7725 51.1545L70.6994 51.3171L69.5612 51.5447L68.3254 51.8374L67.2197 52.1951C67.2197 52.1951 66.0815 52.5854 65.8864 52.6504C65.8864 52.6504 64.9108 53.0406 64.6506 53.1707C64.6506 53.1707 63.4148 53.7561 63.1547 53.8862L62.1465 54.439L61.0083 55.1219L59.8701 55.8699C59.8701 55.8699 58.6994 56.748 58.6669 56.7805C58.6669 56.7805 57.6587 57.626 57.301 57.9187L56.5856 58.6016L55.7725 59.4146C55.7725 59.4146 55.0571 60.2276 54.927 60.3577L54.1465 61.2683L53.366 62.2764C53.4311 62.3415 52.3579 63.8374 52.2929 64.0325Z" fill="#FE5150"/>
<path d="M98.829 90.3736L149.788 90.3086L149.105 93.5606L148.488 96.0647L147.805 98.5037L147.089 100.78L146.471 102.536L145.853 104.195L145.17 105.886L144.39 107.674L143.805 108.943L143.382 109.821L142.862 110.894L142.309 112L141.821 112.91L141.268 113.886L140.715 114.829L140.162 115.739L139.479 116.845L138.862 117.788L138.244 118.764L137.593 119.707L136.715 120.975L135.87 122.113L135.122 123.122L134.276 124.227L133.431 125.268L132.618 126.244L131.707 127.284L130.894 128.195L129.886 129.268L128.748 130.406L127.447 131.674L126.244 132.813L125.105 133.853L124.13 134.699L122.894 135.707L121.561 136.78L120.292 137.756L118.764 138.861L117.333 139.837L116.032 140.683L114.406 141.691L112.813 142.634L110.731 143.772L108.975 144.683L107.317 145.463L105.821 146.146L104.195 146.829L102.341 147.577L100.032 148.422L98.0811 149.073L96.1298 149.658L94.1461 150.211L92.2274 150.666L90.6989 150.992L88.8128 151.349L86.5689 151.707L84.0648 152.032L81.8209 152.26L79.6745 152.39L77.8859 152.455L76.1949 152.487H74.4063L72.5201 152.422L70.5689 152.292L68.6502 152.13L67.1217 151.967L65.4957 151.772L63.9997 151.544L62.5363 151.284L61.203 151.024L59.4144 150.634L57.7884 150.244L56.39 149.886L54.7965 149.431L53.2355 148.943L51.3819 148.325L49.5607 147.642L47.9672 147.024L46.6664 146.504L45.3656 146.016L44.2274 145.496L43.1217 144.943L42.1786 144.455L41.3006 144L40.4225 143.544L39.3493 142.959L37.9835 142.179L36.7802 141.431L35.4144 140.552L33.9835 139.609L32.5201 138.569L31.1217 137.528L29.6258 136.357L28.0648 135.089L26.4063 133.626L25.0404 132.39L23.5119 130.926L21.8534 129.203L20.5851 127.837L19.3493 126.439L18.1136 124.943L16.8778 123.382L15.8372 121.983L14.9266 120.715L14.0485 119.447L13.2355 118.244L12.1949 116.618L11.2518 115.024L10.3087 113.366L9.36561 111.609L8.52008 109.951L7.70707 108.227L6.99162 106.634L6.37374 105.203L5.91845 104.097L5.17049 102.081L4.61764 100.455L4.19488 99.0891L3.80463 97.8533L3.44691 96.6501L3.1217 95.4793L2.7965 94.1135L2.50382 92.8777C2.50382 92.8777 2.08105 90.9265 2.08105 90.8614L53.5607 90.7639L54.1136 91.5769L54.6339 92.2923L55.1542 92.9427L55.7396 93.6257L56.4225 94.4061L57.0404 95.024L57.7559 95.707L58.5038 96.3899L59.1867 96.9753L59.8697 97.5281L60.5526 98.0484L61.3331 98.6013L62.0811 99.0891L62.9266 99.5769L63.7721 100.032L64.6827 100.487L65.7233 100.943C65.7233 100.943 67.2193 101.528 67.3168 101.561C67.3168 101.561 68.5851 101.951 68.7477 102.016L70.1136 102.374L71.3168 102.601L72.455 102.796L73.3981 102.894C73.3981 102.894 74.6664 102.992 74.9591 103.024L76.325 103.057L77.4957 103.024L78.8615 102.926L79.9022 102.796L80.9428 102.634L82.0811 102.406L83.2843 102.113L84.3575 101.788C84.3575 101.788 85.4632 101.431 85.6583 101.333C85.6583 101.333 86.6014 100.943 86.8615 100.845C86.8615 100.845 88.0648 100.292 88.325 100.13L89.3006 99.5769L90.4063 98.9265L91.5119 98.1785C91.5119 98.1785 92.6502 97.333 92.6827 97.3005C92.6827 97.3005 93.6908 96.4549 94.016 96.1948L94.7315 95.5444L95.512 94.7639C95.512 94.7639 96.2274 93.9834 96.3575 93.8533L97.1054 92.9753L97.8534 91.9671C97.7233 92.0647 98.764 90.6013 98.829 90.3736Z" fill="white"/>
<path d="M76 152.228C117.974 152.228 152 118.201 152 76.2275C152 34.2539 117.974 0.227539 76 0.227539C34.0264 0.227539 0 34.2539 0 76.2275C0 118.201 34.0264 152.228 76 152.228Z" stroke="#231F20" stroke-width="1.95122"/>
<path d="M58.0162 63.0566H1.13818" stroke="#231F20" stroke-width="1.95122"/>
<path d="M59.1542 90.667H2.24365" stroke="#231F20" stroke-width="1.95122"/>
<path d="M150.699 62.6992H93.8213" stroke="#231F20" stroke-width="1.95122"/>
<path d="M149.788 90.3086H92.8779" stroke="#231F20" stroke-width="1.95122"/>
<path d="M75.8372 99.9674C88.8406 99.9674 99.3819 89.426 99.3819 76.4226C99.3819 63.4193 88.8406 52.8779 75.8372 52.8779C62.8338 52.8779 52.2925 63.4193 52.2925 76.4226C52.2925 89.426 62.8338 99.9674 75.8372 99.9674Z" stroke="#231F20" stroke-width="5.85366"/>
</g>
<defs>
<clipPath id="clip0_1799_4560">
<rect width="152" height="152.487" fill="white"/>
</clipPath>
</defs>
</svg>
